<svg id="画像パーツ" xmlns="http://www.w3.org/2000/svg" viewBox="0 0 90.39 22.2"><defs><style>.cls-1{fill:#f2a408;}.cls-2{fill:#8d8d8d;}</style></defs><title>logo_sp</title><circle class="cls-1" cx="3.38" cy="4.75" r="3.38"/><rect class="cls-2" x="0.63" y="10.14" width="5.71" height="12.06" rx="0.7" ry="0.7"/><circle class="cls-2" cx="56.73" cy="4.75" r="3.38"/><rect class="cls-2" x="53.98" y="10.14" width="5.71" height="12.06" rx="0.7" ry="0.7"/><path class="cls-2" d="M1543.47-538.78l-3.17-7v-7.6c-3.25,0-5.89,3.4-5.89,7.6s2.64,7.6,5.89,7.6h2.81A0.4,0.4,0,0,0,1543.47-538.78Z" transform="translate(-1518.78 560.42)"/><path class="cls-2" d="M1558.59-550.65h-3v-9.77H1553v22.2h9v-9A3.4,3.4,0,0,0,1558.59-550.65Z" transform="translate(-1518.78 560.42)"/><path class="cls-1" d="M1609.15-550.19c-0.09-1-1-1.19-.94,0a9.62,9.62,0,0,1-1.64,4.93c-1.27,1.92-3.56,4.63-6.7,4.63-1,0-3.66-.26-3.94-1.88a0.47,0.47,0,0,1,.3-0.51,10.32,10.32,0,0,0,3.74-2.74c1.69-1.94,2.28-6.18-.34-7.87s-8.71,2-8.68,7.4a8.75,8.75,0,0,0,.06,1,0.87,0.87,0,0,1-.4.89,1.43,1.43,0,0,1-.86.1,4,4,0,0,0-1.88-.17,2.35,2.35,0,0,0-2.28,2.71c0.17,1.25,1.59,2,3.29,1.71a3.11,3.11,0,0,0,1.81-.82,2.7,2.7,0,0,1,1.45-.48,0.7,0.7,0,0,1,.58.26,8.19,8.19,0,0,0,6.54,2.86c5.05,0,7.86-4.84,8.68-6.55A11.47,11.47,0,0,0,1609.15-550.19Zm-14.92,4.51c-0.43-1.39-.57-3-0.09-3.84a3.69,3.69,0,0,1,3.5-1.67c1.28,0.31,2.13,2.37.58,4.08a5.2,5.2,0,0,1-3.45,1.79A0.52,0.52,0,0,1,1594.23-545.68Z" transform="translate(-1518.78 560.42)"/></svg>